<!-- Generator: Avocode undefined - http://avocode.com -->
<svg height="26" width="20" xmlns:xlink="http://www.w3.org/1999/xlink" xmlns="http://www.w3.org/2000/svg" viewBox="0 0 20 26">
    <path fill="#ff7f66" fill-rule="evenodd" d="M 19.52 22.22 C 19.52 21.83 19.52 22.17 19.52 22.22 Z M 10 25.5 C 1.88 25.5 0.48 22.68 0.48 22.68 C 0.48 22.35 0.48 22.16 0.48 22.06 C 0.48 22.12 0.49 22.09 0.5 21.62 C 0.6 15.9 1.42 14.24 7.24 13.2 C 7.24 13.2 8.07 14.25 10 14.25 C 11.93 14.25 12.76 13.2 12.76 13.2 C 18.64 14.26 19.41 15.93 19.51 21.82 C 19.51 22.19 19.51 22.26 19.52 22.22 C 19.52 22.32 19.52 22.47 19.52 22.68 C 19.52 22.68 18.12 25.5 10 25.5 Z M 10 12.73 C 7.22 12.73 4.96 9.99 4.96 6.61 C 4.96 3.23 5.7 0.5 10 0.5 C 14.3 0.5 15.04 3.23 15.04 6.61 C 15.04 9.99 12.78 12.73 10 12.73 Z M 0.48 22.06 C 0.48 22 0.48 21.86 0.48 22.06 Z" />
</svg>