<!-- Generator: Avocode undefined - http://avocode.com -->
<svg height="23" width="35" xmlns:xlink="http://www.w3.org/1999/xlink" xmlns="http://www.w3.org/2000/svg" viewBox="0 0 35 23">
    <path fill="#ff7f66" fill-rule="evenodd" d="M 16.11 3.71 C 16.11 3.71 16.77 7.7 16.77 7.7 C 16.77 7.7 24.82 11.39 24.82 11.39 C 24.82 11.39 20.06 4.14 20.06 4.14 C 19.97 4 19.84 3.89 19.69 3.82 C 19.69 3.82 17.37 2.75 17.37 2.75 C 17.06 2.61 16.71 2.65 16.45 2.85 C 16.18 3.05 16.05 3.38 16.11 3.71 Z M 34.49 19.36 C 34.83 18.48 34.61 17.46 33.94 16.77 C 33.72 16.53 33.46 16.34 33.16 16.21 C 33.16 16.21 25.75 12.81 25.75 12.81 C 25.75 12.81 25.75 12.81 25.75 12.81 C 25.75 12.81 16.94 8.76 16.94 8.76 C 16.94 8.76 16.94 8.76 16.94 8.76 C 16.94 8.76 7.93 4.63 7.93 4.63 C 7.93 4.63 7.24 2.27 7.24 2.27 C 6.97 1.34 6.29 0.55 5.41 0.14 C 5.15 0.02 4.84 0.04 4.59 0.18 C 4.34 0.32 4.17 0.58 4.14 0.86 C 4.14 0.86 3.61 5.91 3.61 5.91 C 3.61 5.91 1.26 7.19 1.26 7.19 C 0.96 7.35 0.78 7.67 0.79 8.01 C 0.81 8.35 1.01 8.65 1.32 8.79 C 1.32 8.79 2.45 9.31 2.45 9.31 C 2.59 9.37 2.74 9.4 2.9 9.39 C 2.9 9.39 5.89 9.13 5.89 9.13 C 5.89 9.13 14.8 13.22 14.8 13.22 C 14.8 13.22 8.57 19.7 8.57 19.7 C 8.37 19.9 8.28 20.2 8.34 20.48 C 8.37 20.66 8.45 20.81 8.57 20.94 C 8.65 21.02 8.74 21.09 8.84 21.13 C 8.84 21.13 11.36 22.28 11.36 22.28 C 11.58 22.39 11.84 22.39 12.07 22.3 C 12.07 22.3 24.01 17.45 24.01 17.45 C 24.01 17.45 31.15 20.73 31.15 20.73 C 31.77 21.01 32.49 21.02 33.12 20.77 C 33.75 20.51 34.25 20 34.49 19.36 Z" />
</svg>