<!-- Generator: Avocode undefined - http://avocode.com -->
<svg height="21" width="29" xmlns:xlink="http://www.w3.org/1999/xlink" xmlns="http://www.w3.org/2000/svg" viewBox="0 0 29 21">
    <path fill="#ff7f66" fill-rule="evenodd" d="M 23.87 10.08 C 21.12 10.08 18.9 7.87 18.9 5.14 C 18.9 2.42 21.12 0.21 23.87 0.21 C 26.61 0.21 28.84 2.42 28.84 5.14 C 28.84 7.87 26.61 10.08 23.87 10.08 Z M 20.6 20.68 C 19.06 21.23 18.14 20.37 17.67 19.21 C 17.67 19.21 16.4 16.36 16.4 16.36 C 16.39 16.28 16.32 16.22 16.24 16.22 C 16.24 16.22 10.87 16.22 10.87 16.22 C 10.64 16.22 10.47 16.47 10.46 16.69 C 10.46 16.69 10.47 18.25 10.46 18.56 C 10.46 18.63 10.46 18.56 10.45 18.64 C 10.38 20.68 8.66 20.68 8.66 20.68 C 8.66 20.68 2.03 20.68 1.79 20.68 C 1.56 20.68 0.24 20.41 0.16 18.74 C 0.16 16.14 1.88 16.15 1.88 16.15 C 1.88 16.15 5.25 16.15 5.25 16.15 C 5.32 16.15 5.36 16.09 5.33 16.02 C 0.78 11.57 4.14 6.94 8.15 6.94 C 8.15 6.94 12.34 6.94 12.34 6.94 C 12.34 6.94 15.55 6.94 15.55 6.94 C 17.05 6.94 18.24 7.6 18.72 8.72 C 18.72 8.72 21.87 18.21 21.87 18.21 C 22.13 19.01 22.06 20.16 20.6 20.68 Z" />
</svg>