<!-- Generator: Avocode undefined - http://avocode.com -->
<svg height="25" width="23" xmlns:xlink="http://www.w3.org/1999/xlink" xmlns="http://www.w3.org/2000/svg" viewBox="0 0 23 25">
    <path fill="#ff7f66" fill-rule="evenodd" d="M 20.67 24.09 C 20.67 24.09 2.33 24.09 2.33 24.09 C 1.45 24.09 0.73 23.38 0.73 22.49 C 0.73 22.49 0.73 5.31 0.73 5.31 C 0.73 4.43 1.45 3.71 2.33 3.71 C 2.33 3.71 4.1 3.71 4.1 3.71 C 4.1 3.71 4.1 2.51 4.1 2.51 C 4.1 1.62 4.81 0.9 5.7 0.9 C 5.7 0.9 5.76 0.9 5.76 0.9 C 6.65 0.9 7.37 1.62 7.37 2.51 C 7.37 2.51 7.37 3.71 7.37 3.71 C 7.37 3.71 15.63 3.71 15.63 3.71 C 15.63 3.71 15.63 2.51 15.63 2.51 C 15.63 1.62 16.35 0.9 17.24 0.9 C 17.24 0.9 17.3 0.9 17.3 0.9 C 18.19 0.9 18.9 1.62 18.9 2.51 C 18.9 2.51 18.9 3.71 18.9 3.71 C 18.9 3.71 20.67 3.71 20.67 3.71 C 21.55 3.71 22.27 4.43 22.27 5.31 C 22.27 5.31 22.27 22.49 22.27 22.49 C 22.27 23.38 21.55 24.09 20.67 24.09 Z M 19.58 8.55 C 19.58 8.55 3.42 8.55 3.42 8.55 C 3.42 8.55 3.42 21.56 3.42 21.56 C 3.42 21.56 19.58 21.56 19.58 21.56 C 19.58 21.56 19.58 8.55 19.58 8.55 Z M 5.62 11.14 C 5.62 11.14 8.41 11.14 8.41 11.14 C 8.55 11.14 8.66 11.25 8.66 11.39 C 8.66 11.39 8.66 14.18 8.66 14.18 C 8.66 14.32 8.55 14.44 8.41 14.44 C 8.41 14.44 5.62 14.44 5.62 14.44 C 5.48 14.44 5.36 14.32 5.36 14.18 C 5.36 14.18 5.36 11.39 5.36 11.39 C 5.36 11.25 5.48 11.14 5.62 11.14 Z M 5.62 15.63 C 5.62 15.63 8.41 15.63 8.41 15.63 C 8.55 15.63 8.66 15.74 8.66 15.88 C 8.66 15.88 8.66 18.67 8.66 18.67 C 8.66 18.81 8.55 18.93 8.41 18.93 C 8.41 18.93 5.62 18.93 5.62 18.93 C 5.48 18.93 5.36 18.81 5.36 18.67 C 5.36 18.67 5.36 15.88 5.36 15.88 C 5.36 15.74 5.48 15.63 5.62 15.63 Z M 10.11 11.14 C 10.11 11.14 12.89 11.14 12.89 11.14 C 13.04 11.14 13.15 11.25 13.15 11.39 C 13.15 11.39 13.15 14.18 13.15 14.18 C 13.15 14.32 13.04 14.44 12.89 14.44 C 12.89 14.44 10.11 14.44 10.11 14.44 C 9.96 14.44 9.85 14.32 9.85 14.18 C 9.85 14.18 9.85 11.39 9.85 11.39 C 9.85 11.25 9.96 11.14 10.11 11.14 Z M 10.11 15.63 C 10.11 15.63 12.89 15.63 12.89 15.63 C 13.04 15.63 13.15 15.74 13.15 15.88 C 13.15 15.88 13.15 18.67 13.15 18.67 C 13.15 18.81 13.04 18.93 12.89 18.93 C 12.89 18.93 10.11 18.93 10.11 18.93 C 9.96 18.93 9.85 18.81 9.85 18.67 C 9.85 18.67 9.85 15.88 9.85 15.88 C 9.85 15.74 9.96 15.63 10.11 15.63 Z M 14.59 11.14 C 14.59 11.14 17.38 11.14 17.38 11.14 C 17.52 11.14 17.64 11.25 17.64 11.39 C 17.64 11.39 17.64 14.18 17.64 14.18 C 17.64 14.32 17.52 14.44 17.38 14.44 C 17.38 14.44 14.59 14.44 14.59 14.44 C 14.45 14.44 14.34 14.32 14.34 14.18 C 14.34 14.18 14.34 11.39 14.34 11.39 C 14.34 11.25 14.45 11.14 14.59 11.14 Z M 14.59 15.63 C 14.59 15.63 17.38 15.63 17.38 15.63 C 17.52 15.63 17.64 15.74 17.64 15.88 C 17.64 15.88 17.64 18.67 17.64 18.67 C 17.64 18.81 17.52 18.93 17.38 18.93 C 17.38 18.93 14.59 18.93 14.59 18.93 C 14.45 18.93 14.34 18.81 14.34 18.67 C 14.34 18.67 14.34 15.88 14.34 15.88 C 14.34 15.74 14.45 15.63 14.59 15.63 Z" />
</svg>