<!-- Generator: Avocode undefined - http://avocode.com -->
<svg height="36" width="17" xmlns:xlink="http://www.w3.org/1999/xlink" xmlns="http://www.w3.org/2000/svg" viewBox="0 0 17 36">
    <path fill="#ff7f66" fill-rule="evenodd" d="M 16.58 21.8 C 16.41 22.03 16.13 22.16 15.82 22.16 C 15.82 22.16 14.98 22.16 14.98 22.16 C 14.42 22.16 13.83 21.74 13.66 21.2 C 13.66 21.2 12.73 18.32 12.73 18.32 C 12.73 18.32 12.73 22.21 12.73 22.21 C 12.73 22.21 12.73 22.39 12.73 22.39 C 12.73 22.39 12.73 33.22 12.73 33.22 C 12.73 34.24 11.9 35.08 10.88 35.08 C 10.88 35.08 10.75 35.08 10.75 35.08 C 9.72 35.08 8.89 34.24 8.89 33.22 C 8.89 33.22 8.89 23.51 8.89 23.51 C 8.89 23.51 8.1 23.51 8.1 23.51 C 8.1 23.51 8.1 33.22 8.1 33.22 C 8.1 34.24 7.27 35.08 6.25 35.08 C 6.25 35.08 6.12 35.08 6.12 35.08 C 5.09 35.08 4.26 34.24 4.26 33.22 C 4.26 33.22 4.26 22.39 4.26 22.39 C 4.26 22.39 4.26 22.21 4.26 22.21 C 4.26 22.21 4.26 18.32 4.26 18.32 C 4.26 18.32 3.33 21.2 3.33 21.2 C 3.16 21.74 2.58 22.16 2.01 22.16 C 2.01 22.16 1.17 22.16 1.17 22.16 C 0.86 22.16 0.58 22.03 0.42 21.8 C 0.25 21.57 0.21 21.27 0.31 20.97 C 0.31 20.97 3.56 10.88 3.56 10.88 C 3.74 10.34 4.32 9.91 4.88 9.91 C 4.88 9.91 5.37 9.91 5.37 9.91 C 5.37 9.91 5.72 9.91 5.72 9.91 C 5.72 9.91 11.27 9.91 11.27 9.91 C 11.27 9.91 11.62 9.91 11.62 9.91 C 11.62 9.91 12.11 9.91 12.11 9.91 C 12.67 9.91 13.25 10.34 13.43 10.88 C 13.43 10.88 16.69 20.97 16.69 20.97 C 16.78 21.27 16.74 21.57 16.58 21.8 Z M 8.5 8.97 C 6.28 8.97 4.48 7.16 4.48 4.94 C 4.48 2.73 6.28 0.92 8.5 0.92 C 10.71 0.92 12.52 2.73 12.52 4.94 C 12.52 7.16 10.71 8.97 8.5 8.97 Z" />
</svg>