<!-- Generator: Avocode undefined - http://avocode.com -->
<svg height="30" width="31" xmlns:xlink="http://www.w3.org/1999/xlink" xmlns="http://www.w3.org/2000/svg" viewBox="0 0 31 30">
    <path fill="#a2a2a2" fill-rule="evenodd" d="M 15.37 0.18 C 7.2 0.18 0.57 6.81 0.57 14.98 C 0.57 23.15 7.2 29.77 15.37 29.77 C 23.54 29.77 30.16 23.15 30.16 14.98 C 30.16 6.81 23.54 0.18 15.37 0.18 Z M 23.12 22.17 C 23.12 22.48 22.87 22.73 22.56 22.73 C 22.56 22.73 8.17 22.73 8.17 22.73 C 7.87 22.73 7.61 22.48 7.61 22.17 C 7.61 22.17 7.61 7.78 7.61 7.78 C 7.61 7.48 7.87 7.23 8.17 7.23 C 8.17 7.23 22.56 7.23 22.56 7.23 C 22.87 7.23 23.12 7.48 23.12 7.78 C 23.12 7.78 23.12 22.17 23.12 22.17 Z M 12.27 14.98 C 12.27 16.69 13.65 18.08 15.37 18.08 C 17.08 18.08 18.47 16.69 18.47 14.98 C 18.47 13.27 17.08 11.88 15.37 11.88 C 13.65 11.88 12.27 13.27 12.27 14.98 Z M 18.47 8.78 C 18.47 8.78 21.57 8.78 21.57 8.78 C 21.57 8.78 21.57 11.88 21.57 11.88 C 21.57 11.88 18.47 11.88 18.47 11.88 C 18.47 11.88 18.47 8.78 18.47 8.78 Z M 19.98 14.98 C 19.98 17.52 17.91 19.59 15.37 19.59 C 12.82 19.59 10.75 17.52 10.75 14.98 C 10.75 14.65 10.79 14.51 10.86 14.2 C 10.86 14.2 9.16 14.2 9.16 14.2 C 9.16 14.2 9.16 21.18 9.16 21.18 C 9.16 21.18 21.57 21.18 21.57 21.18 C 21.57 21.18 21.57 14.2 21.57 14.2 C 21.57 14.2 19.88 14.2 19.88 14.2 C 19.94 14.51 19.98 14.65 19.98 14.98 Z" />
</svg>