<!-- Generator: Avocode undefined - http://avocode.com -->
<svg height="30" width="31" xmlns:xlink="http://www.w3.org/1999/xlink" xmlns="http://www.w3.org/2000/svg" viewBox="0 0 31 30">
    <path fill="#a2a2a2" fill-rule="evenodd" d="M 15.41 0.14 C 7.27 0.14 0.66 6.74 0.66 14.89 C 0.66 23.03 7.27 29.64 15.41 29.64 C 23.56 29.64 30.16 23.03 30.16 14.89 C 30.16 6.74 23.56 0.14 15.41 0.14 Z M 19.22 14.89 C 19.22 14.89 16.81 14.89 16.81 14.89 C 16.81 14.89 16.8 23.74 16.8 23.74 C 16.8 23.74 13.49 23.74 13.49 23.74 C 13.49 23.74 13.49 14.89 13.49 14.89 C 13.49 14.89 11.27 14.89 11.27 14.89 C 11.27 14.89 11.27 11.84 11.27 11.84 C 11.27 11.84 13.49 11.84 13.49 11.84 C 13.49 11.84 13.48 10.04 13.48 10.04 C 13.48 7.55 14.16 6.04 17.09 6.04 C 17.09 6.04 19.53 6.04 19.53 6.04 C 19.53 6.04 19.53 9.09 19.53 9.09 C 19.53 9.09 18 9.09 18 9.09 C 16.86 9.09 16.81 9.51 16.81 10.31 C 16.81 10.31 16.8 11.84 16.8 11.84 C 16.8 11.84 19.55 11.84 19.55 11.84 C 19.55 11.84 19.22 14.89 19.22 14.89 Z" />
</svg>