<!-- Generator: Avocode undefined - http://avocode.com -->
<svg height="28" width="29" xmlns:xlink="http://www.w3.org/1999/xlink" xmlns="http://www.w3.org/2000/svg" viewBox="0 0 29 28">
    <path fill="#a2a2a2" fill-rule="evenodd" d="M 14.72 0 C 7.12 0 0.94 6.18 0.94 13.78 C 0.94 21.38 7.12 27.56 14.72 27.56 C 22.32 27.56 28.5 21.38 28.5 13.78 C 28.5 6.18 22.32 0 14.72 0 Z M 20.87 10.63 C 20.88 10.77 20.88 10.9 20.88 11.04 C 20.88 15.23 17.69 20.07 11.85 20.07 C 10.06 20.07 8.39 19.54 6.99 18.64 C 7.24 18.67 7.49 18.68 7.75 18.68 C 9.23 18.68 10.6 18.18 11.69 17.33 C 10.3 17.3 9.13 16.39 8.72 15.12 C 8.92 15.16 9.12 15.18 9.32 15.18 C 9.61 15.18 9.89 15.14 10.16 15.07 C 8.71 14.78 7.61 13.5 7.61 11.96 C 7.61 11.95 7.61 11.93 7.61 11.92 C 8.04 12.16 8.53 12.3 9.05 12.32 C 8.2 11.75 7.64 10.78 7.64 9.68 C 7.64 9.09 7.8 8.55 8.07 8.08 C 9.63 10 11.97 11.26 14.61 11.4 C 14.55 11.16 14.52 10.92 14.52 10.67 C 14.52 8.92 15.94 7.5 17.69 7.5 C 18.61 7.5 19.43 7.89 20.01 8.5 C 20.73 8.36 21.41 8.1 22.03 7.73 C 21.79 8.47 21.29 9.09 20.63 9.49 C 21.27 9.41 21.88 9.24 22.45 8.99 C 22.03 9.63 21.49 10.18 20.87 10.63 Z" />
</svg>